<svg width="344" height="74" viewBox="0 0 344 74" fill="none" xmlns="http://www.w3.org/2000/svg">
<rect x="43.5172" y="53.1282" width="52.1096" height="25.1975" rx="12.5988" transform="rotate(-60 43.5172 53.1282)" fill="#07C4B9"/>
<rect x="56.0548" y="65.8373" width="52.1096" height="25.1975" rx="12.5988" transform="rotate(-120 56.0548 65.8373)" fill="#80C407"/>
<path d="M49.7473 42.3014C46.2561 48.3349 48.3341 56.0535 54.3887 59.5413C60.4432 63.0291 68.1816 60.9654 71.6729 54.9319L71.8109 54.6934C73.8128 50.9715 73.8976 46.3354 71.6273 42.4119L60.644 23.4329L49.7473 42.3014Z" fill="#09D598"/>
<path d="M99.3475 47.4186H95.1288L102.81 25.6004H107.689L115.381 47.4186H111.162L105.335 30.0748H105.164L99.3475 47.4186ZM99.486 38.8639H110.992V42.0386H99.486V38.8639ZM118.43 53.5549C117.905 53.5549 117.418 53.5123 116.971 53.4271C116.531 53.349 116.179 53.2566 115.916 53.1501L116.811 50.1459C117.372 50.3092 117.873 50.3873 118.313 50.3802C118.754 50.3731 119.141 50.2346 119.474 49.9647C119.815 49.702 120.103 49.2616 120.337 48.6437L120.668 47.7595L114.734 31.0549H118.825L122.596 43.4129H122.766L126.548 31.0549H130.65L124.098 49.4001C123.793 50.2666 123.388 51.0088 122.884 51.6267C122.379 52.2517 121.761 52.7275 121.03 53.0542C120.305 53.388 119.439 53.5549 118.43 53.5549ZM148.106 32.5677C147.928 31.9924 147.683 31.4775 147.37 31.023C147.065 30.5613 146.696 30.1672 146.262 29.8405C145.836 29.5137 145.346 29.2687 144.792 29.1054C144.238 28.9349 143.635 28.8497 142.981 28.8497C141.809 28.8497 140.765 29.1444 139.849 29.7339C138.933 30.3234 138.212 31.1899 137.686 32.3334C137.168 33.4697 136.909 34.8547 136.909 36.4882C136.909 38.1359 137.168 39.5315 137.686 40.675C138.205 41.8184 138.926 42.6885 139.849 43.2851C140.772 43.8745 141.845 44.1693 143.066 44.1693C144.174 44.1693 145.133 43.9562 145.943 43.5301C146.76 43.1039 147.388 42.5003 147.829 41.719C148.269 40.9307 148.489 40.0074 148.489 38.9491L149.384 39.0876H143.461V35.9981H152.314V38.6189C152.314 40.4868 151.916 42.1025 151.12 43.4662C150.325 44.8298 149.231 45.8809 147.839 46.6196C146.447 47.3511 144.849 47.7169 143.045 47.7169C141.035 47.7169 139.27 47.2659 137.75 46.3639C136.238 45.4548 135.055 44.1657 134.203 42.4967C133.358 40.8206 132.935 38.8319 132.935 36.5308C132.935 34.7694 133.184 33.1963 133.681 31.8113C134.185 30.4264 134.888 29.251 135.79 28.2851C136.692 27.312 137.75 26.5734 138.965 26.0691C140.179 25.5578 141.5 25.3021 142.928 25.3021C144.135 25.3021 145.261 25.4797 146.305 25.8348C147.349 26.1828 148.276 26.6799 149.086 27.3262C149.902 27.9726 150.574 28.7396 151.099 29.6274C151.625 30.5152 151.969 31.4953 152.132 32.5677H148.106ZM166.395 40.5365V31.0549H170.251V47.4186H166.512V44.5102H166.341C165.972 45.4264 165.365 46.1757 164.52 46.7581C163.682 47.3405 162.648 47.6316 161.42 47.6316C160.347 47.6316 159.399 47.3937 158.575 46.9179C157.758 46.4349 157.119 45.7353 156.658 44.8191C156.196 43.8959 155.965 42.7808 155.965 41.474V31.0549H159.822V40.8774C159.822 41.9143 160.106 42.7382 160.674 43.349C161.242 43.9598 161.988 44.2652 162.911 44.2652C163.479 44.2652 164.03 44.1267 164.562 43.8497C165.095 43.5727 165.532 43.1608 165.873 42.6139C166.221 42.0599 166.395 41.3674 166.395 40.5365ZM174.387 47.4186V25.6004H182.569C184.245 25.6004 185.652 25.9129 186.788 26.5379C187.931 27.1629 188.794 28.0223 189.377 29.116C189.966 30.2027 190.261 31.4385 190.261 32.8234C190.261 34.2226 189.966 35.4655 189.377 36.5521C188.787 37.6387 187.917 38.4946 186.767 39.1196C185.616 39.7375 184.199 40.0464 182.516 40.0464H177.093V36.7971H181.983C182.963 36.7971 183.766 36.6267 184.391 36.2858C185.016 35.9449 185.478 35.4761 185.776 34.8795C186.081 34.2829 186.234 33.5976 186.234 32.8234C186.234 32.0493 186.081 31.3674 185.776 30.778C185.478 30.1885 185.012 29.7304 184.38 29.4037C183.755 29.0699 182.949 28.903 181.962 28.903H178.34V47.4186H174.387ZM197.38 37.8305V47.4186H193.524V25.6004H197.295V33.8355H197.487C197.87 32.9122 198.463 32.1842 199.266 31.6515C200.075 31.1118 201.105 30.8419 202.355 30.8419C203.492 30.8419 204.482 31.0798 205.328 31.5557C206.173 32.0315 206.826 32.7275 207.288 33.6437C207.757 34.5599 207.991 35.6785 207.991 36.9995V47.4186H204.134V37.5961C204.134 36.4953 203.85 35.6395 203.282 35.0287C202.721 34.4108 201.933 34.1018 200.917 34.1018C200.235 34.1018 199.625 34.251 199.085 34.5493C198.552 34.8405 198.133 35.263 197.828 35.817C197.529 36.371 197.38 37.0422 197.38 37.8305ZM216.631 47.7488C215.594 47.7488 214.66 47.5642 213.829 47.1949C213.005 46.8184 212.352 46.2645 211.869 45.5329C211.393 44.8014 211.155 43.8994 211.155 42.827C211.155 41.9037 211.325 41.1402 211.666 40.5365C212.007 39.9328 212.473 39.4498 213.062 39.0876C213.651 38.7254 214.316 38.452 215.054 38.2673C215.8 38.0755 216.571 37.937 217.366 37.8518C218.325 37.7524 219.102 37.6636 219.699 37.5855C220.296 37.5003 220.729 37.3724 220.999 37.202C221.276 37.0244 221.414 36.751 221.414 36.3816V36.3177C221.414 35.5152 221.176 34.8937 220.7 34.4534C220.225 34.013 219.539 33.7929 218.644 33.7929C217.7 33.7929 216.95 33.9988 216.397 34.4108C215.85 34.8227 215.48 35.3092 215.289 35.8703L211.688 35.3589C211.972 34.3646 212.441 33.5336 213.094 32.866C213.747 32.1913 214.546 31.687 215.491 31.3532C216.436 31.0123 217.48 30.8419 218.623 30.8419C219.411 30.8419 220.196 30.9342 220.977 31.1189C221.759 31.3035 222.473 31.6089 223.119 32.0351C223.765 32.4541 224.284 33.0258 224.674 33.7503C225.072 34.4747 225.271 35.3802 225.271 36.4669V47.4186H221.563V45.1707H221.436C221.201 45.6253 220.871 46.0514 220.445 46.4491C220.026 46.8397 219.497 47.1558 218.857 47.3973C218.225 47.6316 217.483 47.7488 216.631 47.7488ZM217.632 44.915C218.406 44.915 219.078 44.7623 219.646 44.4569C220.214 44.1444 220.651 43.7325 220.956 43.2211C221.269 42.7098 221.425 42.1522 221.425 41.5486V39.6203C221.304 39.7197 221.098 39.812 220.807 39.8973C220.523 39.9825 220.203 40.0571 219.848 40.121C219.493 40.1849 219.142 40.2417 218.794 40.2914C218.446 40.3412 218.144 40.3838 217.888 40.4193C217.313 40.4974 216.798 40.6253 216.343 40.8028C215.889 40.9804 215.53 41.2289 215.267 41.5486C215.004 41.8611 214.873 42.2659 214.873 42.763C214.873 43.4733 215.132 44.0095 215.651 44.3717C216.169 44.7339 216.83 44.915 217.632 44.915ZM229.149 47.4186V31.0549H232.888V33.7822H233.058C233.357 32.8376 233.868 32.1096 234.593 31.5983C235.324 31.0798 236.159 30.8206 237.096 30.8206C237.309 30.8206 237.547 30.8312 237.81 30.8525C238.08 30.8667 238.303 30.8916 238.481 30.9271V34.4747C238.318 34.4179 238.058 34.3682 237.703 34.3255C237.355 34.2758 237.018 34.251 236.691 34.251C235.988 34.251 235.356 34.4037 234.795 34.7091C234.241 35.0074 233.804 35.4228 233.485 35.9555C233.165 36.4882 233.005 37.1025 233.005 37.7986V47.4186H229.149ZM241.043 47.4186V31.0549H244.729V33.8355H244.921C245.262 32.898 245.827 32.1664 246.615 31.6409C247.403 31.1082 248.344 30.8419 249.438 30.8419C250.546 30.8419 251.48 31.1118 252.24 31.6515C253.007 32.1842 253.547 32.9122 253.859 33.8355H254.03C254.392 32.9264 255.003 32.202 255.862 31.6622C256.729 31.1153 257.755 30.8419 258.941 30.8419C260.447 30.8419 261.675 31.3177 262.627 32.2694C263.579 33.2211 264.055 34.6096 264.055 36.4349V47.4186H260.187V37.0315C260.187 36.0159 259.917 35.2737 259.378 34.8049C258.838 34.3291 258.177 34.0912 257.396 34.0912C256.466 34.0912 255.738 34.3824 255.212 34.9647C254.694 35.54 254.435 36.2893 254.435 37.2126V47.4186H250.653V36.8717C250.653 36.0265 250.397 35.3518 249.886 34.8476C249.381 34.3433 248.721 34.0912 247.904 34.0912C247.35 34.0912 246.846 34.2332 246.391 34.5173C245.937 34.7943 245.574 35.1885 245.305 35.6998C245.035 36.2041 244.9 36.7936 244.9 37.4683V47.4186H241.043ZM272.676 47.7488C271.639 47.7488 270.705 47.5642 269.874 47.1949C269.05 46.8184 268.397 46.2645 267.914 45.5329C267.438 44.8014 267.2 43.8994 267.2 42.827C267.2 41.9037 267.37 41.1402 267.711 40.5365C268.052 39.9328 268.517 39.4498 269.107 39.0876C269.696 38.7254 270.36 38.452 271.099 38.2673C271.845 38.0755 272.615 37.937 273.411 37.8518C274.37 37.7524 275.147 37.6636 275.744 37.5855C276.341 37.5003 276.774 37.3724 277.044 37.202C277.321 37.0244 277.459 36.751 277.459 36.3816V36.3177C277.459 35.5152 277.221 34.8937 276.745 34.4534C276.27 34.013 275.584 33.7929 274.689 33.7929C273.745 33.7929 272.995 33.9988 272.441 34.4108C271.895 34.8227 271.525 35.3092 271.333 35.8703L267.733 35.3589C268.017 34.3646 268.485 33.5336 269.139 32.866C269.792 32.1913 270.591 31.687 271.536 31.3532C272.481 31.0123 273.525 30.8419 274.668 30.8419C275.456 30.8419 276.241 30.9342 277.022 31.1189C277.804 31.3035 278.517 31.6089 279.164 32.0351C279.81 32.4541 280.329 33.0258 280.719 33.7503C281.117 34.4747 281.316 35.3802 281.316 36.4669V47.4186H277.608V45.1707H277.481C277.246 45.6253 276.916 46.0514 276.49 46.4491C276.071 46.8397 275.542 47.1558 274.902 47.3973C274.27 47.6316 273.528 47.7488 272.676 47.7488ZM273.677 44.915C274.451 44.915 275.123 44.7623 275.691 44.4569C276.259 44.1444 276.696 43.7325 277.001 43.2211C277.314 42.7098 277.47 42.1522 277.47 41.5486V39.6203C277.349 39.7197 277.143 39.812 276.852 39.8973C276.568 39.9825 276.248 40.0571 275.893 40.121C275.538 40.1849 275.186 40.2417 274.838 40.2914C274.49 40.3412 274.189 40.3838 273.933 40.4193C273.358 40.4974 272.843 40.6253 272.388 40.8028C271.934 40.9804 271.575 41.2289 271.312 41.5486C271.049 41.8611 270.918 42.2659 270.918 42.763C270.918 43.4733 271.177 44.0095 271.696 44.3717C272.214 44.7339 272.875 44.915 273.677 44.915ZM292.331 47.7382C290.698 47.7382 289.295 47.3795 288.123 46.6622C286.958 45.9449 286.06 44.9541 285.428 43.6899C284.803 42.4186 284.49 40.9555 284.49 39.3007C284.49 37.6387 284.81 36.1721 285.449 34.9008C286.088 33.6224 286.99 32.6281 288.155 31.9179C289.327 31.2005 290.712 30.8419 292.31 30.8419C293.638 30.8419 294.814 31.0869 295.836 31.577C296.866 32.0599 297.686 32.7453 298.297 33.6331C298.908 34.5137 299.256 35.5436 299.341 36.7226H295.655C295.506 35.9342 295.151 35.2772 294.59 34.7517C294.036 34.219 293.294 33.9527 292.363 33.9527C291.575 33.9527 290.882 34.1657 290.286 34.5919C289.689 35.0109 289.224 35.6146 288.89 36.403C288.564 37.1913 288.4 38.1359 288.4 39.2368C288.4 40.3518 288.564 41.3106 288.89 42.1132C289.217 42.9086 289.675 43.523 290.265 43.9562C290.861 44.3824 291.561 44.5954 292.363 44.5954C292.931 44.5954 293.439 44.4889 293.887 44.2758C294.341 44.0557 294.721 43.7396 295.027 43.3277C295.332 42.9157 295.542 42.415 295.655 41.8255H299.341C299.249 42.9832 298.908 44.0095 298.319 44.9044C297.729 45.7922 296.927 46.4882 295.911 46.9924C294.895 47.4896 293.702 47.7382 292.331 47.7382ZM304.905 53.5549C304.379 53.5549 303.893 53.5123 303.446 53.4271C303.005 53.349 302.654 53.2566 302.391 53.1501L303.286 50.1459C303.847 50.3092 304.348 50.3873 304.788 50.3802C305.228 50.3731 305.615 50.2346 305.949 49.9647C306.29 49.702 306.578 49.2616 306.812 48.6437L307.142 47.7595L301.208 31.0549H305.299L309.071 43.4129H309.241L313.023 31.0549H317.125L310.573 49.4001C310.267 50.2666 309.862 51.0088 309.358 51.6267C308.854 52.2517 308.236 52.7275 307.504 53.0542C306.78 53.388 305.914 53.5549 304.905 53.5549Z" fill="#80C407"/>
</svg>
